<?xml version="1.0" encoding="UTF-8"?>
<svg width="200px" height="140px" viewBox="0 0 200 140" version="1.1" xmlns="http://www.w3.org/2000/svg" xmlns:xlink="http://www.w3.org/1999/xlink">
    <!-- Generator: Sketch 50.2 (55047) - http://www.bohemiancoding.com/sketch -->
    <title>Availability-Setup-Illustration</title>
    <desc>Created with Sketch.</desc>
    <defs>
        <rect id="path-1" x="0" y="0" width="200" height="140"></rect>
    </defs>
    <g id="Availability-Setup-Illustration" stroke="none" stroke-width="1" fill="none" fill-rule="evenodd">
        <g id="Illustration">
            <mask id="mask-2" fill="white">
                <use xlink:href="#path-1"></use>
            </mask>
            <g id="Mask"></g>
            <g id="Group" mask="url(#mask-2)">
                <g transform="translate(99.500000, 100.000000) rotate(-15.000000) translate(-99.500000, -100.000000) translate(34.000000, 23.000000)">
                    <path d="M85.0298165,15.8793774 C85.0298165,24.1528327 78.3037477,30.8599222 70.0068807,30.8599222 C61.7100138,30.8599222 54.983945,24.1528327 54.983945,15.8793774 C54.983945,7.60592218 61.7100138,0.898832685 70.0068807,0.898832685 C78.3037477,0.898832685 85.0298165,7.60592218 85.0298165,15.8793774 Z" id="Stroke-1" stroke="#444752" stroke-width="2" fill="none"></path>
                    <polygon id="Fill-3" stroke="none" fill="#ECF4FF" fill-rule="evenodd" points="63.396789 34.4552529 65.8004587 34.4552529 65.8004587 24.8677043 63.396789 24.8677043"></polygon>
                    <polygon id="Fill-5" stroke="none" fill="#ECF4FF" fill-rule="evenodd" points="74.2133028 34.4552529 76.6169725 34.4552529 76.6169725 24.8677043 74.2133028 24.8677043"></polygon>
                    <polygon id="Fill-6" stroke="none" fill="#FFFFFF" fill-rule="evenodd" points="65.8004587 34.4552529 74.2133028 34.4552529 74.2133028 24.8677043 65.8004587 24.8677043"></polygon>
                    <polygon id="Stroke-7" stroke="#444752" stroke-width="2" fill="none" points="65.8004587 34.4552529 74.2133028 34.4552529 74.2133028 24.8677043 65.8004587 24.8677043"></polygon>
                    <polygon id="Fill-8" stroke="none" fill="#FFFFFF" fill-rule="evenodd" points="106.174478 45.2796553 110.307589 39.3875074 106.860726 36.9834296 102.727616 42.8755774"></polygon>
                    <polygon id="Fill-9" stroke="none" fill="#C9E0FF" fill-rule="evenodd" points="109.399602 40.6888374 110.307589 39.3873276 106.860726 36.9832498 105.438355 39.0218023"></polygon>
                    <g id="Group-12" stroke="none" stroke-width="1" fill="none" fill-rule="evenodd" transform="translate(105.761468, 38.949416)">
                        <path d="M0.41301055,6.33023891 L4.54612064,0.438091051" id="Fill-10" fill="#FFFFFF"></path>
                        <path d="M0.41301055,6.33023891 L4.54612064,0.438091051" id="Stroke-11" stroke="#444752" stroke-width="2"></path>
                    </g>
                    <path d="M121.084862,93.1789883 C121.084862,126.272809 94.1805872,153.101167 60.9931193,153.101167 C27.8056514,153.101167 0.901376147,126.272809 0.901376147,93.1789883 C0.901376147,60.0851673 27.8056514,33.2568093 60.9931193,33.2568093 C94.1805872,33.2568093 121.084862,60.0851673 121.084862,93.1789883" id="Fill-13" stroke="none" fill="#C9E0FF" fill-rule="evenodd"></path>
                    <path d="M121.084862,93.1789883 C121.084862,126.272809 94.1805872,153.101167 60.9931193,153.101167 C27.8056514,153.101167 0.901376147,126.272809 0.901376147,93.1789883 C0.901376147,60.0851673 27.8056514,33.2568093 60.9931193,33.2568093 C94.1805872,33.2568093 121.084862,60.0851673 121.084862,93.1789883 Z" id="Stroke-14" stroke="#444752" stroke-width="2" fill="none"></path>
                    <g id="Group-17" stroke="none" stroke-width="1" fill="none" fill-rule="evenodd" transform="translate(102.155963, 36.552529)">
                        <path d="M4.70494312,0.4306607 L0.571833028,6.32280856" id="Fill-15" fill="#FFFFFF"></path>
                        <path d="M4.70494312,0.4306607 L0.571833028,6.32280856" id="Stroke-16" stroke="#444752" stroke-width="2"></path>
                    </g>
                    <path d="M130.098624,93.1789883 C130.098624,126.272809 103.194349,153.101167 70.0068807,153.101167 C36.8194128,153.101167 9.91513761,126.272809 9.91513761,93.1789883 C9.91513761,60.0851673 36.8194128,33.2568093 70.0068807,33.2568093 C103.194349,33.2568093 130.098624,60.0851673 130.098624,93.1789883" id="Fill-18" stroke="none" fill="#FFFFFF" fill-rule="evenodd"></path>
                    <path d="M130.098624,93.1789883 C130.098624,126.272809 103.194349,153.101167 70.0068807,153.101167 C36.8194128,153.101167 9.91513761,126.272809 9.91513761,93.1789883 C9.91513761,60.0851673 36.8194128,33.2568093 70.0068807,33.2568093 C103.194349,33.2568093 130.098624,60.0851673 130.098624,93.1789883 Z" id="Stroke-19" stroke="#444752" stroke-width="2" fill="none"></path>
                    <path d="M70.0068807,45.2412451 C44.2088945,45.2412451 23.1617615,65.5063268 21.9899725,90.9432918 C23.1569541,67.9889027 42.1910138,49.7354086 65.5,49.7354086 C89.5613349,49.7354086 109.066514,69.1855486 109.066514,93.1789883 C109.066514,117.172428 89.5613349,136.622568 65.5,136.622568 C42.1910138,136.622568 23.1569541,118.369074 21.9899725,95.4146848 C23.1617615,120.85165 44.2088945,141.116732 70.0068807,141.116732 C96.5572156,141.116732 118.080275,119.654405 118.080275,93.1789883 C118.080275,66.703572 96.5572156,45.2412451 70.0068807,45.2412451" id="Fill-20" stroke="none" fill="#C9E0FF" fill-rule="evenodd"></path>
                    <path d="M77.2178899,24.8677043 L62.7958716,24.8677043 C60.812844,24.8677043 59.190367,23.2498054 59.190367,21.2723735 L59.190367,16.4785992 C59.190367,14.5011673 60.812844,12.8832685 62.7958716,12.8832685 L77.2178899,12.8832685 C79.2009174,12.8832685 80.8233945,14.5011673 80.8233945,16.4785992 L80.8233945,21.2723735 C80.8233945,23.2498054 79.2009174,24.8677043 77.2178899,24.8677043" id="Fill-21" stroke="none" fill="#C9E0FF" fill-rule="evenodd"></path>
                    <path d="M77.2178899,24.8677043 L62.7958716,24.8677043 C60.812844,24.8677043 59.190367,23.2498054 59.190367,21.2723735 L59.190367,16.4785992 C59.190367,14.5011673 60.812844,12.8832685 62.7958716,12.8832685 L77.2178899,12.8832685 C79.2009174,12.8832685 80.8233945,14.5011673 80.8233945,16.4785992 L80.8233945,21.2723735 C80.8233945,23.2498054 79.2009174,24.8677043 77.2178899,24.8677043 Z" id="Stroke-22" stroke="#444752" stroke-width="2" fill="none"></path>
                    <path d="M110.307769,39.3874475 L112.0312,40.5894864 C112.84364,41.1563502 113.973365,40.9574086 114.541833,40.1466615 L115.919737,38.1830117 C116.487604,37.3728638 116.288099,36.2463268 115.475659,35.679463 L108.581934,30.8707082 C107.769494,30.3044436 106.639769,30.5033852 106.071301,31.3135331 L104.693397,33.2777821 C104.12553,34.08793 104.325035,35.2144669 105.137475,35.7807315 L106.860906,36.9833696 L110.307769,39.3874475 Z" id="Fill-23" stroke="none" fill="#C9E0FF" fill-rule="evenodd"></path>
                    <path d="M110.307769,39.3874475 L112.0312,40.5894864 C112.84364,41.1563502 113.973365,40.9574086 114.541833,40.1466615 L115.919737,38.1830117 C116.487604,37.3728638 116.288099,36.2463268 115.475659,35.679463 L108.581934,30.8707082 C107.769494,30.3044436 106.639769,30.5033852 106.071301,31.3135331 L104.693397,33.2777821 C104.12553,34.08793 104.325035,35.2144669 105.137475,35.7807315 L106.860906,36.9833696 L110.307769,39.3874475 Z" id="Stroke-24" stroke="#444752" stroke-width="2" fill="none"></path>
                    <polygon id="Fill-25" stroke="none" fill="#C9E0FF" fill-rule="evenodd" points="73.3077202 27.2523673 66.7192615 28.4508109 66.7192615 25.7543128 73.3077202 25.7543128"></polygon>
                    <path d="M85.7145018,105.850911 L73.4696073,97.2994171 L73.4696073,70.4087401 C73.4696073,68.4313082 71.8471303,66.8134093 69.8641028,66.8134093 C67.8810752,66.8134093 66.2585982,68.4313082 66.2585982,70.4087401 L66.2585982,99.171386 C66.2585982,99.5033549 66.3078734,99.8239385 66.3938046,100.129542 C66.3938046,100.13074 66.3938046,100.131339 66.3944055,100.132538 C66.4214468,100.230211 66.4532954,100.325487 66.4887495,100.419565 C66.4965615,100.441137 66.5037725,100.46211 66.5121853,100.483682 C66.5410294,100.555588 66.5722771,100.625697 66.6053275,100.695207 C66.6263596,100.740149 66.6473917,100.78509 66.6702266,100.828833 C66.6930615,100.873176 66.7183,100.91632 66.7429376,100.959464 C66.7813963,101.025977 66.820456,101.091293 66.8631211,101.156009 C66.8763413,101.175184 66.8895615,101.19376 66.9027817,101.212935 C66.9598688,101.295028 67.0193596,101.375324 67.0836578,101.453223 C67.0848596,101.454421 67.0860615,101.455619 67.0866624,101.456818 C67.2885706,101.7019 67.5235294,101.926009 67.795745,102.115962 L81.5777862,111.740662 C83.2020661,112.874989 85.4621165,112.478304 86.5996532,110.858608 C87.7371899,109.238312 87.3387817,106.985238 85.7145018,105.850911" id="Fill-26" stroke="none" fill="#444752" fill-rule="evenodd"></path>
                    <path d="M70.0068807,141.116732 C43.4565459,141.116732 21.9334862,119.654405 21.9334862,93.1789883 C21.9334862,66.703572 43.4565459,45.2412451 70.0068807,45.2412451 C96.5572156,45.2412451 118.080275,66.703572 118.080275,93.1789883" id="Stroke-27" stroke="#444752" stroke-width="2" fill="none" stroke-linecap="round"></path>
                </g>
            </g>
        </g>
    </g>
</svg>