<svg width="67" height="64" viewBox="0 0 67 64" fill="none" xmlns="http://www.w3.org/2000/svg">
<circle cx="33.9653" cy="4.96534" r="4.96534" fill="#6AAA9B"/>
<path d="M29 16.4238C29 13.6816 31.2231 11.4585 33.9653 11.4585C36.7076 11.4585 38.9307 13.6816 38.9307 16.4238V24.4448H29V16.4238Z" fill="#6AAA9B"/>
<circle cx="3.48636" cy="49.4864" r="2.95" stroke="#9DBFCE" stroke-width="1.07273"/>
<path d="M0.536364 57.5318C0.536364 55.9025 1.85712 54.5818 3.48636 54.5818C5.1156 54.5818 6.43636 55.9025 6.43636 57.5318V62.6272H0.536364V57.5318Z" stroke="#9DBFCE" stroke-width="1.07273"/>
<circle cx="23.4864" cy="49.4864" r="2.95" stroke="#9DBFCE" stroke-width="1.07273"/>
<path d="M20.5364 57.5318C20.5364 55.9025 21.8571 54.5818 23.4864 54.5818C25.1156 54.5818 26.4364 55.9025 26.4364 57.5318V62.6272H20.5364V57.5318Z" stroke="#9DBFCE" stroke-width="1.07273"/>
<circle cx="43.4864" cy="49.4864" r="2.95" stroke="#9DBFCE" stroke-width="1.07273"/>
<path d="M40.5364 57.5318C40.5364 55.9025 41.8571 54.5818 43.4864 54.5818C45.1156 54.5818 46.4364 55.9025 46.4364 57.5318V62.6272H40.5364V57.5318Z" stroke="#9DBFCE" stroke-width="1.07273"/>
<circle cx="63.4864" cy="49.4864" r="2.95" stroke="#9DBFCE" stroke-width="1.07273"/>
<path d="M60.5364 57.5318C60.5364 55.9025 61.8571 54.5818 63.4864 54.5818C65.1156 54.5818 66.4364 55.9025 66.4364 57.5318V62.6272H60.5364V57.5318Z" stroke="#9DBFCE" stroke-width="1.07273"/>
<path d="M33.6626 28L4.5 41" stroke="#EADFA9" stroke-width="2" stroke-linecap="round" stroke-linejoin="round"/>
<path d="M34 28L63.1626 41" stroke="#EADFA9" stroke-width="2" stroke-linecap="round" stroke-linejoin="round"/>
<path d="M33.2794 28.606L42.9999 41" stroke="#EADFA9" stroke-width="2" stroke-linecap="round" stroke-linejoin="round"/>
<path d="M33.7205 28.606L24 41" stroke="#EADFA9" stroke-width="2" stroke-linecap="round" stroke-linejoin="round"/>
</svg>
